<?xml version="1.0" encoding="utf-8"?>
<!-- Generator: Adobe Illustrator 21.1.0, SVG Export Plug-In . SVG Version: 6.00 Build 0)  -->
<svg version="1.1" id="Layer_1" xmlns="http://www.w3.org/2000/svg" xmlns:xlink="http://www.w3.org/1999/xlink" x="0px" y="0px"
	 viewBox="0 0 1920 820" style="enable-background:new 0 0 1920 820;" xml:space="preserve">
<style type="text/css">
	.st0{fill:#FAA401;}
</style>
<g>
	<g>
		<path class="st0" d="M1919.2,358.3c-121,53-145.1-52.8-209.4-242.2s-358-4.1-373,148c-15,152,224.1,131.5,273.2,133.6
			c49.1,2.1,85.3,23.2,133.2,178.3c27.8,90,111,122.5,176,133.9c0.3,0.1,0.9,0.2,0.9,0.2V358C1920,357.9,1919.5,358,1919.2,358.3z
			 M490.1,313.6c-22.7-21-87.6-6.6-118,25c-34.6,36-88.5,18.1-151,1c-35.1-9.6-72.5-25.3-179.3-19.4c-15.4,0.9-28.9,2.4-40.7,4.4
			c-0.4,0.1-1.1,0.2-1.1,0.2l0.1,459.5c0,0,0.8-0.1,1.2-0.2c48.6-9.1,99.8-30.3,118.3-51.9c29.1-33.9,41.5-88.1,154.4-41.2
			c112.8,47,240.1-108.6,269.1-148.4c29-39.9,47.8-163.1,38-196C571.2,313.6,530.3,350.8,490.1,313.6z"/>
	</g>
</g>
</svg>
